<?xml version="1.0" encoding="UTF-8"?>
<svg version="1.1" xmlns="http://www.w3.org/2000/svg" width="3840" height="2160">
<path d="M0 0 C-2.30574078 2.71263621 -5.01756492 4.13128061 -8.1015625 5.8359375 C-12.35691927 8.44518918 -15.92229216 11.92229216 -19.4375 15.4375 C-23.47927031 19.47927031 -27.83766353 23.15815269 -32.1875 26.86328125 C-32.88875 27.46527344 -33.59 28.06726563 -34.3125 28.6875 C-35.26576172 29.49767578 -35.26576172 29.49767578 -36.23828125 30.32421875 C-38.09119187 31.98579304 -38.09119187 31.98579304 -39.60546875 34.20703125 C-40.29576172 35.09455078 -40.29576172 35.09455078 -41 36 C-41.66 36 -42.32 36 -43 36 C-43 36.66 -43 37.32 -43 38 C-44.36328125 39.33984375 -44.36328125 39.33984375 -46.3125 40.9375 C-54.76242513 48.14830183 -62.24747832 55.98945787 -69.125 64.6875 C-70.6753403 66.59958637 -72.13809683 68.39199272 -74 70 C-74.66 70 -75.32 70 -76 70 C-76.40412109 70.88365234 -76.40412109 70.88365234 -76.81640625 71.78515625 C-77.99507327 73.99078067 -79.26222879 75.59171772 -80.9375 77.4375 C-82.68399044 79.36265954 -84.08239585 81.13984407 -85.40625 83.38671875 C-87.20567234 86.33724215 -89.29069051 88.77135316 -91.5625 91.375 C-101.34484564 102.87793097 -109.01227992 115.98773049 -116.74658203 128.91308594 C-117.85897827 130.76520183 -118.98768284 132.60602913 -120.12109375 134.4453125 C-143.10850454 172.83475105 -156.11172401 221.67126234 -146 266 C-145.74186523 267.13937012 -145.74186523 267.13937012 -145.47851562 268.30175781 C-142.77715967 279.61427826 -138.39349797 290.1460572 -133.5625 300.6875 C-133.02512207 301.86948975 -132.48774414 303.05147949 -131.93408203 304.26928711 C-128.64294071 311.24744051 -124.95367536 317.10450912 -120 323 C-118.59885633 324.89191203 -117.20231674 326.78725156 -115.8125 328.6875 C-103.43534947 346.00005851 -103.43534947 346.00005851 -87.49609375 359.42578125 C-84.59894633 361.25293369 -83.12371708 363.32364279 -81 366 C-78.88237621 367.91109535 -76.63981455 369.64254245 -74.375 371.375 C-73.74964355 371.85904297 -73.12428711 372.34308594 -72.47998047 372.84179688 C-67.42932442 376.72671742 -62.26560366 380.41219893 -57 384 C-55.76101621 384.86227266 -54.52279606 385.72564316 -53.28515625 386.58984375 C-42.75799403 393.92071541 -32.21403993 401.08607399 -20.6328125 406.671875 C-17.49785013 408.25331002 -14.47669593 409.99155862 -11.4375 411.75 C4.3674594 421.00379824 4.3674594 421.00379824 21.23779297 427.98217773 C24.10066654 429.03709376 26.70137094 430.31686434 29.40625 431.7265625 C35.74551977 434.9372605 42.22852166 437.7247612 48.80102539 440.41479492 C50.69854358 441.19202348 52.59256404 441.9773465 54.48632812 442.76367188 C60.06805895 445.07010668 65.64162077 447.30731494 71.39575195 449.14770508 C75.02943062 450.33690281 78.62986931 451.6161308 82.234375 452.890625 C83.78360444 453.43759721 85.3328396 453.98455321 86.88208008 454.53149414 C88.0755455 454.95303268 88.0755455 454.95303268 89.29312134 455.38308716 C106.02804869 461.29425046 106.02804869 461.29425046 122.8125 467.0625 C123.53598633 467.31225586 124.25947266 467.56201172 125.00488281 467.81933594 C129.72051441 469.39695253 134.49144846 470.6392148 139.3203125 471.81640625 C148.10389068 473.9611108 156.75378041 476.50883798 165.41784668 479.08868408 C177.65825342 482.72803696 189.90172609 486.36659158 202.25 489.625 C203.07894775 489.84784668 203.90789551 490.07069336 204.76196289 490.30029297 C209.12591086 491.42632861 213.44312748 492.23724883 217.90625 492.8671875 C225.90933018 494.04424803 233.70320633 495.96192659 241.56039429 497.85424805 C259.03822832 502.05053058 276.57968479 505.89038108 294.1875 509.5 C295.21613159 509.71309814 296.24476318 509.92619629 297.30456543 510.14575195 C307.72654604 512.3000651 318.04370454 514.2313559 328.62036133 515.43115234 C337.65523956 516.53316464 346.60843781 518.32139576 355.56698608 519.91110229 C376.63552416 523.63739757 397.73019895 527.15674352 418.88439941 530.36129761 C421.36603499 530.73728671 423.84725891 531.11600596 426.32800293 531.49783325 C440.7570854 533.71215446 455.16371608 535.49209523 469.70063782 536.82725525 C480.14911118 537.79392434 490.57037885 538.93618423 500.9921875 540.15625 C502.20927997 540.29864955 502.20927997 540.29864955 503.45096016 540.44392586 C508.42296195 541.0266883 513.39438696 541.6142575 518.36566162 542.20318604 C522.55858641 542.69914092 526.75197778 543.19111921 530.9453125 543.68359375 C548.6333648 545.76270453 566.31850827 547.86576811 584 550 C583.96083717 548.47937958 583.96083717 548.47937958 583.92088318 546.92803955 C583.99717781 543.14011795 584.48201099 539.85073622 585.26586914 536.15136719 C585.40092865 535.50430817 585.53598816 534.85724915 585.67514038 534.19058228 C586.12193999 532.05791098 586.57857477 529.92747153 587.03515625 527.796875 C587.35535399 526.27660849 587.67487389 524.75619908 587.99375916 523.23565674 C588.83823505 519.21679721 589.69079036 515.19969644 590.54541016 511.1829834 C592.05122481 504.09790505 593.54222848 497.00967783 595.03515625 489.921875 C595.19923603 489.14332657 595.36331581 488.36477814 595.53236771 487.56263733 C597.86798548 476.47379346 600.17477078 465.37938765 602.41564751 454.27097321 C602.71306698 452.79816606 603.01175371 451.3256141 603.3118763 449.85335541 C604.96881279 441.71403437 606.38476737 433.58367042 607.50813293 425.35220337 C608.30943962 419.89108761 609.4195229 414.50102132 610.5390625 409.09765625 C610.78111923 407.91272079 611.02317596 406.72778534 611.27256775 405.50694275 C612.0529448 401.69134566 612.83901988 397.8769464 613.625 394.0625 C614.16753144 391.41490682 614.70862951 388.76702129 615.24975586 386.11914062 C617.44878813 375.36661244 619.6611083 364.61684534 621.89355469 353.87120056 C622.61991941 350.37458091 623.34377321 346.87744286 624.06781006 343.38034058 C624.54161521 341.10049305 625.02074537 338.82181698 625.50048828 336.54321289 C626.99101291 329.39965014 628.30195217 322.26299829 629.390625 315.046875 C631.03861221 304.19269239 633.24831472 293.46261031 635.47119141 282.71377563 C636.20358372 279.17222571 636.93050089 275.62958677 637.65625 272.08666992 C639.70008148 262.11885301 641.75805428 252.15399425 643.829422 242.19186401 C644.55460908 238.70238949 645.2770442 235.21234742 645.99942017 231.72229004 C646.47918754 229.41269113 646.96428846 227.10426354 647.44995117 224.79589844 C649.17737767 216.51114655 650.6406927 208.21898446 651.92121887 199.85339355 C652.98189113 192.96468631 654.27801435 186.13849846 655.6875 179.3125 C655.91244141 178.20583984 656.13738281 177.09917969 656.36914062 175.95898438 C656.90908515 173.30521447 657.45265832 170.65225212 658 168 C658.66 168 659.32 168 660 168 C660.45439453 169.21623047 660.45439453 169.21623047 660.91796875 170.45703125 C661.54638672 172.11798828 661.54638672 172.11798828 662.1875 173.8125 C662.59355469 174.89144531 662.99960938 175.97039062 663.41796875 177.08203125 C664.60871559 180.132665 665.96022062 183.08480315 667.34765625 186.05078125 C670.10623477 192.06338371 672.34724241 198.22247829 674.56411743 204.45162964 C678.95089093 216.75313796 683.76293605 228.80014708 689.02294922 240.75585938 C692.51922677 248.78628997 695.75524504 256.84740728 698.12451172 265.28710938 C699.12808145 268.3968882 700.37804495 271.32620666 701.6875 274.3203125 C705.06580949 282.10784883 708.30214994 289.94936944 711.5 297.8125 C711.78579926 298.51410248 712.07159851 299.21570496 712.36605835 299.93856812 C715.7716777 308.31123656 719.06889975 316.69392082 721.97143555 325.25634766 C724.55557992 332.79930773 727.76083291 340.07946752 730.89404297 347.40673828 C732.91116354 352.13650753 734.90128767 356.87696751 736.875 361.625 C737.2563208 362.52500732 737.6376416 363.42501465 738.03051758 364.35229492 C738.38911865 365.21830322 738.74771973 366.08431152 739.1171875 366.9765625 C739.43284668 367.73018066 739.74850586 368.48379883 740.07373047 369.26025391 C741.36540224 373.08079703 742.12512278 377.0630525 743 381 C789.86 381 836.72 381 885 381 C886.485 376.05 886.485 376.05 888 371 C888.60697847 369.28572169 889.23455728 367.57823707 889.90234375 365.88671875 C890.23556641 365.03013672 890.56878906 364.17355469 890.91210938 363.29101562 C891.59118299 361.56681539 892.27086235 359.84285359 892.95117188 358.11914062 C894.76838557 353.44480482 896.39568515 348.77946741 897.81640625 343.96875 C900.39934652 335.40000831 903.71969527 327.13212585 907 318.8125 C907.62281815 317.22217054 908.24521611 315.63167645 908.8671875 314.04101562 C911.26791394 307.91007583 913.67241207 301.78430699 916.1875 295.69921875 C917.62911412 292.12314825 918.78364478 288.51467265 919.88671875 284.8203125 C921.9275095 278.02431016 924.42680382 271.44996481 927.03045654 264.85653687 C928.37329817 261.45405306 929.69907008 258.04490968 931.02734375 254.63671875 C931.4177182 253.63675621 931.4177182 253.63675621 931.815979 252.61659241 C936.1829643 241.42033914 940.31986298 230.16999606 944.0625 218.75 C946.20952012 212.20319925 948.59806532 205.81207583 951.2109375 199.43359375 C953.69172636 193.3463912 956.02108189 187.19955988 958.375 181.0625 C959.0551416 179.29036133 959.0551416 179.29036133 959.74902344 177.48242188 C960.83351454 174.65526577 961.91720226 171.82780501 963 169 C965.20908052 171.20908052 965.38130372 171.93638543 965.94836426 174.90040588 C966.10809219 175.71473587 966.26782013 176.52906586 966.43238831 177.36807251 C966.5997197 178.26311493 966.76705109 179.15815735 966.93945312 180.08032227 C967.12185043 181.0220076 967.30424774 181.96369293 967.49217224 182.93391418 C968.09582975 186.06005615 968.68849475 189.18818037 969.28125 192.31640625 C969.69887142 194.48930861 970.11721626 196.66207204 970.53625488 198.83470154 C971.64041478 204.56912245 972.73546215 210.30524591 973.82843018 216.04180908 C975.15274269 222.98449005 976.48680505 229.92530231 977.82033539 236.86621761 C978.85916558 242.27357338 979.89625464 247.68124118 980.92785645 253.08998108 C981.21494225 254.59140152 981.21494225 254.59140152 981.50782776 256.12315369 C981.86215435 257.97630827 982.21550444 259.82964999 982.56761169 261.68322754 C983.48803566 266.48950559 984.48249414 271.26926438 985.58047295 276.03828526 C986.20998821 278.98190801 986.56329706 281.94154284 986.9140625 284.9296875 C988.04348014 293.73564983 989.6851145 302.41178753 991.375 311.125 C991.71665601 312.90579208 992.05803659 314.68663702 992.39916992 316.4675293 C994.45552851 327.16951878 996.56262262 337.86128187 998.68758392 348.54983521 C999.09076529 350.5788564 999.49328079 352.60800855 999.89556885 354.63720703 C1000.16491389 355.99560608 1000.43426204 357.35400452 1000.70361328 358.71240234 C1000.83702118 359.38533703 1000.97042908 360.05827171 1001.10787964 360.75159836 C1001.76865066 364.08197755 1002.43199491 367.41180661 1003.10101318 370.74053955 C1007.95601382 394.91670346 1007.95601382 394.91670346 1009.359375 405.7890625 C1011.51532302 422.26546386 1015.12777045 438.54023031 1018.38983154 454.82470703 C1019.29984264 459.37384976 1020.20332265 463.92428875 1021.10742188 468.47460938 C1022.28819552 474.41353364 1023.47037804 480.35217059 1024.65752506 486.28982449 C1024.96700265 487.8380197 1025.2760767 489.38629565 1025.5847311 490.93465519 C1026.40786996 495.05979424 1027.24082578 499.18269502 1028.08572388 503.30343628 C1028.35636705 504.63265688 1028.35636705 504.63265688 1028.63247776 505.98873043 C1028.97592163 507.67473795 1029.3220558 509.36020087 1029.67153072 511.04496861 C1030.90121326 517.10324498 1031.70401264 523.15814967 1032.34610844 529.30377102 C1032.73817154 532.99985084 1033.2575138 536.57297417 1034.125 540.1875 C1034.92098265 543.6557101 1035.0698491 546.47262053 1035 550 C1092.59186532 548.85184187 1150.11153247 544.99792253 1207.36938477 538.75048828 C1209.21758271 538.54954726 1211.06580836 538.34886095 1212.9140625 538.1484375 C1213.82297745 538.04962784 1214.7318924 537.95081818 1215.66835022 537.84901428 C1221.36882328 537.2421703 1227.06994985 536.74342381 1232.78570557 536.3049469 C1246.57442427 535.24288769 1260.19817659 533.46806931 1273.875 531.4375 C1275.62452469 531.18113266 1275.62452469 531.18113266 1277.40939331 530.91958618 C1305.17547289 526.84094904 1333.06289247 522.48112218 1360.46484375 516.36328125 C1365.01756144 515.35611164 1369.51489457 514.64639935 1374.14453125 514.09375 C1383.48772205 512.91817256 1392.54521168 510.71989834 1401.6875 508.5 C1402.58976318 508.2836792 1403.49202637 508.0673584 1404.42163086 507.84448242 C1419.1922205 504.30135723 1433.85225516 500.41537918 1448.4519043 496.22460938 C1449.84281772 495.82640884 1451.2338459 495.42860888 1452.625 495.03125 C1453.28673218 494.84201462 1453.94846436 494.65277924 1454.63024902 494.45780945 C1458.03566824 493.49932316 1461.40973722 492.68614094 1464.89453125 492.08203125 C1472.70424319 490.6355467 1480.18688093 487.74216477 1487.6875 485.1875 C1489.24915746 484.66023978 1490.8110055 484.13354366 1492.37304688 483.60742188 C1495.44188179 482.57326125 1498.50920818 481.53478627 1501.57568359 480.49365234 C1504.45959143 479.51647477 1507.34742556 478.55301481 1510.24072266 477.60400391 C1510.91102005 477.38351883 1511.58131744 477.16303375 1512.27192688 476.93586731 C1514.07349429 476.34460703 1515.87618127 475.75676111 1517.67895508 475.16918945 C1519.99714146 474.35306106 1522.28439302 473.44591512 1524.54101562 472.47241211 C1527.72096371 471.11877949 1530.81835923 470.09061893 1534.13671875 469.140625 C1540.89761429 467.10317428 1547.33089642 464.5394952 1553.8125 461.75 C1554.94107422 461.26909912 1556.06964844 460.78819824 1557.23242188 460.29272461 C1564.78209396 457.04349181 1572.16462623 453.58042961 1579.4375 449.75390625 C1582.22472345 448.38168769 1584.93023719 447.222866 1587.8203125 446.109375 C1593.08741772 444.04285763 1597.9510872 441.46141993 1602.875 438.6875 C1603.74415039 438.204021 1604.61330078 437.72054199 1605.50878906 437.22241211 C1611.23173765 434.02814633 1616.90034518 430.75074088 1622.5390625 427.41015625 C1624.70254859 426.17044438 1626.87191363 425.06420483 1629.125 424 C1634.12863625 421.55970199 1638.50442858 418.2588255 1643 415 C1645.35186194 413.30927641 1647.7071276 411.62332811 1650.0625 409.9375 C1650.66570068 409.50429443 1651.26890137 409.07108887 1651.89038086 408.62475586 C1655.11120266 406.31889531 1658.35815656 404.08546351 1661.6875 401.9375 C1669.09892805 397.06119594 1675.77152645 391.29670409 1682 385 C1683.71600331 383.38176 1685.44496484 381.77713495 1687.1875 380.1875 C1688.47720703 379.00220703 1688.47720703 379.00220703 1689.79296875 377.79296875 C1692 376 1692 376 1694 376 C1694 375.34 1694 374.68 1694 374 C1695.375 372.375 1695.375 372.375 1697 371 C1697.66 371 1698.32 371 1699 371 C1699.20625 370.319375 1699.4125 369.63875 1699.625 368.9375 C1701.91764974 364.03956647 1705.58737658 360.39430739 1709.41015625 356.62109375 C1711.96702037 354.03337757 1714.30957722 351.3672647 1716.625 348.5625 C1717.75808594 347.20318359 1717.75808594 347.20318359 1718.9140625 345.81640625 C1721.02198706 342.97031335 1722.4227761 340.16598846 1724 337 C1724.91640504 335.59885495 1725.85047084 334.20918431 1726.796875 332.828125 C1730.30470293 327.6552712 1733.28530794 322.24734357 1736.25 316.75 C1736.77851563 315.78320312 1737.30703125 314.81640625 1737.8515625 313.8203125 C1741.21485875 307.62296966 1743.8243263 301.9455154 1745.47753906 295.05712891 C1746.28398502 291.88184218 1747.34425472 288.79614898 1748.375 285.6875 C1761.43430302 244.61349457 1759.27174315 199.58534034 1746.11328125 158.78125 C1745.27024818 155.91789556 1744.67717369 153.29095823 1744.171875 150.37109375 C1742.90811113 143.80101796 1740.42329303 137.75281986 1737.9375 131.5625 C1737.45087891 130.33635986 1736.96425781 129.11021973 1736.46289062 127.84692383 C1732.65601995 118.32788125 1728.43321392 109.05777535 1723.89379883 99.86938477 C1723.06618568 98.13842769 1722.31648458 96.37079887 1721.57421875 94.6015625 C1719.1683752 89.09737452 1716.26173347 83.8702952 1713.40820312 78.58789062 C1712.97056641 77.76869141 1712.53292969 76.94949219 1712.08203125 76.10546875 C1711.68218018 75.36449951 1711.2823291 74.62353027 1710.87036133 73.86010742 C1710 72 1710 72 1710 70 C1709.34 70 1708.68 70 1708 70 C1707.56171875 69.05382812 1707.1234375 68.10765625 1706.671875 67.1328125 C1700.97448277 55.14435792 1693.82345077 44.43448162 1686.29785156 33.53466797 C1685.47365723 32.32447998 1685.47365723 32.32447998 1684.6328125 31.08984375 C1684.1289502 30.35499756 1683.62508789 29.62015137 1683.10595703 28.86303711 C1682 27 1682 27 1682 25 C1681.34 25 1680.68 25 1680 25 C1678.88811864 23.25104067 1677.86193546 21.4473878 1676.875 19.625 C1673.90437302 14.35634082 1670.60699723 9.76266864 1666.69921875 5.15625 C1665.13047058 3.16556266 1664.0320194 1.30501795 1663 -1 C1668.32797464 -0.40044103 1673.51033768 0.42706645 1678.73046875 1.66796875 C1679.45550095 1.83991257 1680.18053314 2.01185638 1680.92753601 2.18901062 C1689.30151983 4.23639176 1697.49891515 6.82901678 1705.70092773 9.47143555 C1708.29774841 10.30774921 1710.8975592 11.13415253 1713.49804688 11.95898438 C1722.2327955 14.74320286 1730.90728695 17.65249118 1739.54296875 20.73046875 C1745.69805782 22.92255101 1751.78319265 24.80422492 1758.15625 26.27441406 C1763.89885172 27.7396452 1769.43502223 29.85192402 1775 31.875 C1776.18078125 32.29652344 1777.3615625 32.71804688 1778.578125 33.15234375 C1786.15322931 35.88038242 1793.58781248 38.85959901 1801 42 C1803.14065207 42.86706983 1805.2853361 43.72441175 1807.4375 44.5625 C1808.38496094 44.93503906 1809.33242187 45.30757813 1810.30859375 45.69140625 C1813.50261639 46.82367883 1816.68779716 47.79552612 1819.9375 48.75 C1827.71616548 51.11891438 1835.09979413 54.23685068 1842.5625 57.4375 C1843.89492903 58.00385141 1845.22761082 58.56960856 1846.56054688 59.13476562 C1851.48281349 61.22344796 1856.40276152 63.31754997 1861.31982422 65.41845703 C1865.69251133 67.26851996 1870.03254429 69.06331265 1874.5546875 70.515625 C1879.9007321 72.23270815 1884.99110887 74.48701788 1890.125 76.75 C1891.14126465 77.194646 1892.1575293 77.63929199 1893.20458984 78.09741211 C1899.89978241 81.03911035 1906.52833734 84.09511591 1913.13671875 87.2265625 C1917.84921716 89.42314029 1922.64834063 91.41531542 1927.4375 93.4375 C1936.48965954 97.27241704 1945.26481285 101.49761126 1954 106 C1956.45479744 107.25707069 1958.91399831 108.50513007 1961.375 109.75 C1962.93347656 110.54664063 1962.93347656 110.54664063 1964.5234375 111.359375 C1967.13043238 112.58964225 1969.65687191 113.64106822 1972.34375 114.65625 C1980.2155761 117.75758657 1987.63218506 121.84264521 1995.125 125.75 C1998.12666526 127.30910482 2001.12967624 128.86560594 2004.1328125 130.421875 C2004.87036774 130.8048172 2005.60792297 131.1877594 2006.36782837 131.58230591 C2011.41955238 134.19975471 2016.49805068 136.75844475 2021.59375 139.2890625 C2026.93006952 141.94193379 2032.19804983 144.67267228 2037.375 147.625 C2046.20441087 152.59523129 2055.12264192 157.39443134 2064.05419922 162.17822266 C2069.41118296 165.05120998 2074.74341865 167.94682113 2080 171 C2080 171.66 2080 172.32 2080 173 C2080.825 173.226875 2081.65 173.45375 2082.5 173.6875 C2086.06319728 175.02369898 2088.83308135 176.71795452 2092 178.78125 C2094.1701658 180.1725485 2094.1701658 180.1725485 2097.4375 181.4375 C2101.06655745 183.02919186 2104.00232269 184.93443379 2107.24609375 187.1796875 C2109.44150835 188.63084098 2111.64215174 189.98976431 2113.91015625 191.3203125 C2114.59400391 191.72169434 2115.27785156 192.12307617 2115.98242188 192.53662109 C2117.35919541 193.33973899 2118.73937981 194.13704052 2120.12304688 194.92822266 C2121.78134389 195.8983857 2123.39560165 196.94308409 2125 198 C2125 198.66 2125 199.32 2125 200 C2126.09441406 200.42925781 2126.09441406 200.42925781 2127.2109375 200.8671875 C2134.82577275 203.96004776 2141.36094532 207.81894478 2147.93359375 212.74609375 C2151.4753148 215.34937151 2155.09348831 217.81187362 2158.75 220.25 C2159.67075317 220.86814575 2159.67075317 220.86814575 2160.61010742 221.4987793 C2164.05733857 223.79027522 2167.55928884 225.88014486 2171.16943359 227.91015625 C2174.72872 230.0292086 2178.06943676 232.4679413 2181.4375 234.875 C2182.14970703 235.37902344 2182.86191406 235.88304687 2183.59570312 236.40234375 C2187.86337387 239.43351407 2192.06671739 242.53538718 2196.22143555 245.71972656 C2198.40870031 247.2941969 2200.7505493 248.5318334 2203.109375 249.828125 C2206.35287789 251.83856068 2209.22986919 254.30286282 2212.18359375 256.7109375 C2215.32286349 259.26241055 2218.49349787 261.7676197 2221.6875 264.25 C2222.72261719 265.05953125 2223.75773437 265.8690625 2224.82421875 266.703125 C2227.1026794 268.35101536 2229.21145396 269.72946842 2231.6484375 271.078125 C2234.51950056 272.72446885 2236.58037216 274.22758923 2238.9375 276.5 C2243.05271198 280.27755356 2247.39028766 283.61936764 2251.875 286.9375 C2257.5267468 291.12339665 2263.05409122 295.40562483 2268.46484375 299.90234375 C2271.8674998 302.71779259 2275.33620324 305.44706581 2278.80859375 308.17578125 C2281 310 2281 310 2283.03515625 312.0390625 C2284.92708001 313.92722498 2286.85460428 315.47376946 2289 317.0625 C2295.73879221 322.22555473 2302.18588372 327.99627182 2308.04296875 334.14453125 C2310.20100686 336.19057537 2312.45004203 337.4784994 2315 339 C2321.01686189 343.99630272 2326.43751685 349.36172217 2331.46484375 355.33984375 C2333.6564159 357.70986453 2336.31157549 359.22563982 2339 361 C2343.36635793 365.01384463 2347.43291577 369.27556862 2351.25 373.8125 C2354.3386453 377.42306916 2357.73264527 380.56966782 2361.25 383.75 C2366.53093025 388.53243092 2371.3368622 393.52686437 2376.08984375 398.83984375 C2379.98183892 403.13648612 2384.14869765 407.16734237 2388.31811523 411.19287109 C2391.48136082 414.29165264 2393.73439775 417.17527362 2396 421 C2397.88385171 422.99677265 2399.77360348 424.91396989 2401.75 426.8125 C2413.39653925 438.23773569 2413.39653925 438.23773569 2416.39453125 443.40234375 C2418.20087095 446.32501018 2420.27214787 448.62276043 2422.625 451.125 C2426.21261136 455.0186135 2429.72365479 458.942066 2433.125 463 C2434.24261719 464.3303125 2434.24261719 464.3303125 2435.3828125 465.6875 C2437 468 2437 468 2437 471 C2437.66 471 2438.32 471 2439 471 C2440.50878906 472.72485352 2440.50878906 472.72485352 2442.265625 475.12890625 C2442.90886719 475.99966797 2443.55210937 476.87042969 2444.21484375 477.76757812 C2444.88644531 478.68990234 2445.55804687 479.61222656 2446.25 480.5625 C2452.2442528 488.74457729 2452.2442528 488.74457729 2458.76464844 496.50610352 C2460.44579796 498.53909836 2461.68392644 500.7915809 2462.9375 503.10546875 C2464.20357716 505.36299604 2465.58232567 507.52200246 2467 509.6875 C2467.474375 510.41324219 2467.94875 511.13898437 2468.4375 511.88671875 C2469.95652403 514.05631248 2469.95652403 514.05631248 2471.93359375 515.90234375 C2474.36149192 518.36695872 2476.15689466 520.98905433 2478.0625 523.875 C2478.73410156 524.88304687 2479.40570312 525.89109375 2480.09765625 526.9296875 C2481.92811051 529.88397301 2483.44706358 532.89412715 2485 536 C2486.00697494 537.52350613 2487.04932638 539.02419659 2488.125 540.5 C2495.04120676 550.24952675 2501.20181769 560.13824095 2506.69482422 570.75 C2509.5394315 576.21877917 2512.67141099 581.4458101 2515.94921875 586.66796875 C2518.3227915 590.52445934 2520.58383949 594.43348846 2522.8125 598.375 C2523.18568359 599.02927979 2523.55886719 599.68355957 2523.94335938 600.35766602 C2526.25510725 604.47297581 2528.16503908 608.64502608 2530 613 C2531.19191076 615.42696761 2532.39720004 617.84152838 2533.625 620.25 C2537.22609551 627.36953455 2540.66141339 634.55960665 2544.02978516 641.79199219 C2544.56804932 642.94103027 2544.56804932 642.94103027 2545.1171875 644.11328125 C2545.43284668 644.79173096 2545.74850586 645.47018066 2546.07373047 646.16918945 C2547.08159638 648.25167297 2547.08159638 648.25167297 2549 651 C2549.50046586 652.52811897 2549.95318201 654.07227226 2550.37109375 655.625 C2551.83108769 660.67243371 2553.81365134 665.26247184 2556.0625 670 C2559.81114242 678.12114306 2563.21001667 686.3458425 2566.4375 694.6875 C2567.07473999 696.31655273 2567.07473999 696.31655273 2567.72485352 697.97851562 C2569.72056591 703.19292393 2571.3680064 708.22470696 2572.46020508 713.69555664 C2573.59631734 718.5457437 2575.44068944 723.19374876 2577.125 727.875 C2581.91485088 741.44543204 2586.05913907 755.16220424 2590 769 C2590.22558594 769.77972168 2590.45117188 770.55944336 2590.68359375 771.36279297 C2592.7933561 778.67284373 2594.42229465 785.94167769 2595.65234375 793.44921875 C2596.58615149 799.00393079 2597.74539797 804.49177964 2598.96107483 809.99134827 C2602.25605612 824.91071836 2605.07954677 839.82938726 2607.375 854.9375 C2607.50210358 855.77065735 2607.62920715 856.6038147 2607.76016235 857.46221924 C2609.04801063 865.95669868 2610.25691236 874.43721103 2611 883 C2605.32436938 882.38081117 2599.90030566 881.3828537 2594.35546875 880.0390625 C2592.69078955 879.64568798 2591.02607479 879.25246392 2589.36132812 878.859375 C2586.7924271 878.2476741 2584.22408158 877.63379341 2581.65649414 877.01660156 C2571.83200647 874.66185401 2562.05907427 872.58046077 2552.0650177 871.08760071 C2546.57483856 870.2648589 2541.12731174 869.3066813 2535.6796875 868.23828125 C2534.89539368 868.08464111 2534.11109985 867.93100098 2533.30303955 867.77270508 C2531.67461522 867.45284996 2530.04629065 867.13248661 2528.4180603 866.81164551 C2498.41092007 860.92191917 2468.21520402 855.91397275 2437.9375 851.625 C2436.94387451 851.4815918 2435.95024902 851.33818359 2434.92651367 851.19042969 C2426.81736185 850.09147283 2418.67929265 849.45473269 2410.5252533 848.79847717 C2400.51209223 847.9835302 2390.52820507 846.94503918 2380.53872681 845.88345337 C2357.72128264 843.47345206 2334.90344389 841.38625963 2312 840 C2311.13940979 839.94779297 2310.27881958 839.89558594 2309.39215088 839.84179688 C2262.33560109 837.03406738 2215.03738502 836.71230444 2168 840 C2166.47982142 840.10291943 2164.95963912 840.20578395 2163.43945312 840.30859375 C2142.27935335 841.76383724 2121.30839572 844.21053054 2100.30500793 847.13948059 C2096.09347847 847.72382351 2091.88147771 848.2639383 2087.65625 848.7421875 C2057.26145761 852.21186425 2027.14505182 859.86543285 1998.1171875 869.36328125 C1995.01312506 870.37287727 1991.91082918 871.32381269 1988.7578125 872.16796875 C1971.37584161 876.82885589 1954.74152158 884.31004189 1938.80078125 892.6015625 C1936.28981238 893.85529591 1933.82305589 894.8596788 1931.1875 895.8125 C1919.90969628 900.14154163 1909.56198833 907.49226001 1899.6328125 914.26953125 C1897.26248321 915.82747765 1894.88474143 917.18391608 1892.375 918.5 C1887.07053095 921.36212359 1882.61162834 925.14891007 1878 929 C1876.14724905 930.52255771 1874.29306318 932.04337087 1872.4375 933.5625 C1871.52355469 934.3153125 1870.60960938 935.068125 1869.66796875 935.84375 C1867.23464809 937.81035762 1864.75609441 939.69037514 1862.25 941.5625 C1858.60780359 944.37016118 1855.69592042 947.43089922 1852.75390625 950.953125 C1848.95051747 955.39182371 1844.66981766 959.41163686 1840.4375 963.4375 C1836.32780737 967.7579461 1832.78691349 972.53585445 1829.2890625 977.359375 C1828.76054687 978.08640625 1828.23203125 978.8134375 1827.6875 979.5625 C1827.21699219 980.22378906 1826.74648437 980.88507812 1826.26171875 981.56640625 C1825.84535156 982.03949219 1825.42898437 982.51257812 1825 983 C1824.34 983 1823.68 983 1823 983 C1822.74089844 983.72445312 1822.48179687 984.44890625 1822.21484375 985.1953125 C1820.95476278 988.10443834 1819.44952963 990.33461172 1817.5625 992.875 C1814.73149562 996.81481443 1812.67807938 1000.45931461 1811 1005 C1810.34 1005 1809.68 1005 1809 1005 C1808.65195312 1006.22396484 1808.65195312 1006.22396484 1808.296875 1007.47265625 C1806.7175592 1011.76820495 1804.54650217 1015.4925857 1802.25 1019.4375 C1796.05473512 1030.34771565 1791.58803491 1041.41645935 1788.0546875 1053.4765625 C1787.28874909 1056.03536416 1786.48740229 1058.55733644 1785.6328125 1061.0859375 C1772.25064544 1101.06092881 1770.00669834 1142.20974228 1769 1184 C1767.27132677 1182.90752852 1765.543661 1181.8134628 1763.81640625 1180.71875 C1762.85420166 1180.10966797 1761.89199707 1179.50058594 1760.90063477 1178.87304688 C1755.69380128 1175.51080241 1750.61964823 1171.94627265 1745.64453125 1168.25 C1740.40252989 1164.4189778 1734.9937375 1161.37223214 1729.1640625 1158.5480957 C1725.76062076 1156.89564002 1722.47417297 1155.16647513 1719.25 1153.1875 C1708.57956983 1146.64812599 1697.91487758 1140.40479832 1686.09765625 1136.1875 C1682.82273212 1134.93204359 1679.79888237 1133.42996953 1676.6875 1131.8125 C1670.22511064 1128.50885701 1663.62938151 1125.62057554 1656.9375 1122.8125 C1655.46639771 1122.18855347 1655.46639771 1122.18855347 1653.96557617 1121.55200195 C1647.87987951 1119.02518631 1641.76646662 1116.93396658 1635.45336914 1115.05200195 C1631.74089463 1113.92106857 1628.06398592 1112.69977258 1624.390625 1111.44921875 C1599.75530925 1103.08071481 1575.48239613 1095.75366121 1549.72900391 1091.6015625 C1546.53568139 1091.08641606 1543.34525211 1090.55639832 1540.15539551 1090.02029419 C1475.23463726 1079.14932698 1411.14539297 1080.38573725 1346.73681641 1093.26831055 C1344.15225956 1093.77438116 1341.57010917 1094.26276096 1338.97802734 1094.72583008 C1330.43779088 1096.25618324 1322.08740706 1098.13872786 1313.75 1100.5625 C1311.97967407 1101.07151855 1311.97967407 1101.07151855 1310.17358398 1101.59082031 C1299.08180361 1104.84935617 1288.25385866 1108.70359799 1277.41015625 1112.703125 C1273.12547504 1114.27564046 1268.82997829 1115.6758186 1264.453125 1116.96875 C1257.96760237 1118.92741584 1251.85898604 1121.46980987 1245.6875 1124.25 C1244.60662109 1124.73090088 1243.52574219 1125.21180176 1242.41210938 1125.70727539 C1235.00548426 1129.02800065 1227.71057264 1132.52009472 1220.5 1136.24609375 C1217.9196512 1137.53914801 1215.3606628 1138.73568273 1212.71875 1139.88671875 C1207.53073673 1142.16691653 1202.51810174 1144.74542703 1197.5 1147.375 C1196.61441406 1147.83132813 1195.72882812 1148.28765625 1194.81640625 1148.7578125 C1189.63986969 1151.4639021 1184.78228657 1154.40967163 1179.96142578 1157.70507812 C1177.62962101 1159.24452205 1175.23720371 1160.42445184 1172.6875 1161.5625 C1161.89182176 1166.79339564 1151.81435019 1173.78224938 1142.09765625 1180.7890625 C1139 1183 1139 1183 1135.75 1184.8125 C1129.29588501 1188.41246192 1123.46625807 1193.06841306 1117.6484375 1197.6015625 C1117.0827002 1198.04161621 1116.51696289 1198.48166992 1115.93408203 1198.93505859 C1114.33216263 1200.18584692 1112.73622484 1201.44428492 1111.140625 1202.703125 C1108.88861869 1204.35011469 1106.85291857 1205.68358899 1104.43359375 1207.00390625 C1101.07213462 1208.95806509 1098.60390319 1210.99996297 1095.8125 1213.6875 C1091.03283162 1218.15202541 1086.02740148 1222.05964667 1080.76171875 1225.9296875 C1077.78443627 1228.16159657 1075.00403466 1230.52264277 1072.23828125 1233.0078125 C1069.89384491 1235.09448359 1067.50827385 1237.12579227 1065.11523438 1239.15625 C1059.11432926 1244.25344351 1053.24740204 1249.46488368 1047.49145508 1254.8371582 C1044.54706394 1257.58376792 1041.56474573 1260.26365299 1038.5 1262.875 C1036.12045793 1264.91389184 1034.12443817 1266.9749031 1032.1875 1269.4375 C1031.465625 1270.283125 1030.74375 1271.12875 1030 1272 C1029.01 1272 1028.02 1272 1027 1272 C1027 1272.66 1027 1273.32 1027 1274 C1026.34 1274 1025.68 1274 1025 1274 C1025 1274.66 1025 1275.32 1025 1276 C1023.53125 1277.4453125 1023.53125 1277.4453125 1021.5 1279.125 C1015.9025338 1283.89321195 1010.69702107 1288.95306445 1005.9375 1294.5625 C1001.62649456 1299.61051574 996.82831751 1304.19124692 992.06616211 1308.80883789 C991.42815674 1309.4352417 990.79015137 1310.06164551 990.1328125 1310.70703125 C989.55418457 1311.2688208 988.97555664 1311.83061035 988.37939453 1312.40942383 C986.76565707 1314.065281 986.76565707 1314.065281 986 1317 C984.3984375 1318.54296875 984.3984375 1318.54296875 982.375 1320.1875 C978.11974166 1323.8123497 974.60397433 1327.74075761 971 1332 C969.99775999 1333.15379324 968.99369134 1334.30599936 967.98828125 1335.45703125 C962.92523954 1341.25774949 957.89960973 1347.07135901 953.0625 1353.0625 C950.69921433 1355.98950519 948.33092144 1358.76170178 945.625 1361.375 C943.01685555 1363.76507975 943.01685555 1363.76507975 941.71484375 1366.17578125 C939.41364702 1369.96567929 936.70219811 1373.3524886 933.9375 1376.8125 C933.12442383 1377.85180664 933.12442383 1377.85180664 932.29492188 1378.91210938 C931.77349609 1379.56630859 931.25207031 1380.22050781 930.71484375 1380.89453125 C930.24167725 1381.49112549 929.76851074 1382.08771973 929.28100586 1382.70239258 C928.85827393 1383.13060303 928.43554199 1383.55881348 928 1384 C927.34 1384 926.68 1384 926 1384 C925.7525 1384.556875 925.505 1385.11375 925.25 1385.6875 C924 1388 924 1388 922.125 1390.3125 C919.8890238 1392.98812713 919.8890238 1392.98812713 918.19921875 1396.2734375 C916.09066389 1400.01768717 913.53128066 1403.10885973 910.6875 1406.3125 C905.29637193 1412.53012996 900.59785563 1419.04237065 896.08203125 1425.921875 C894.02205513 1428.96739316 891.8551388 1431.88984442 889.625 1434.8125 C886.33560381 1439.16229365 883.21824377 1443.56082776 880.2890625 1448.16015625 C879 1450 879 1450 877.46875 1451.5 C875.80710259 1453.19700161 874.94045977 1454.8184189 873.875 1456.9375 C871.17805144 1461.935737 867.8554938 1466.30250561 864.4140625 1470.80859375 C861.91273787 1474.09374831 859.4984073 1477.43397729 857.125 1480.8125 C856.04605469 1482.33810547 856.04605469 1482.33810547 854.9453125 1483.89453125 C852.90248402 1487.1556731 851.50847226 1490.4665677 850 1494 C848.4921875 1496.16015625 848.4921875 1496.16015625 846.875 1498.0625 C843.24808521 1502.53826718 840.17064348 1507.25812624 837.10888672 1512.12719727 C835.57899352 1514.5566458 834.04744632 1516.93739721 832.3125 1519.2265625 C830.81099854 1521.10268783 830.81099854 1521.10268783 829.75 1524.0625 C827.53641697 1529.44320953 824.15994288 1534.13990233 821 1539 C819.23792821 1541.74245196 817.49152748 1544.49446696 815.75 1547.25 C815.32581787 1547.9112085 814.90163574 1548.57241699 814.46459961 1549.25366211 C811.86027778 1553.38057416 809.80896546 1557.46583981 808 1562 C807.34 1562 806.68 1562 806 1562 C805.67 1563.32 805.34 1564.64 805 1566 C801.17336714 1564.72445571 800.59680329 1563.29200265 798.42578125 1559.94140625 C797.75869141 1558.91595703 797.09160156 1557.89050781 796.40429688 1556.83398438 C795.71400391 1555.75439453 795.02371094 1554.67480469 794.3125 1553.5625 C793.2596582 1551.94891602 793.2596582 1551.94891602 792.18554688 1550.30273438 C787 1542.27496356 787 1542.27496356 787 1540 C786.34 1540 785.68 1540 785 1540 C784.61199219 1539.00484375 784.22398438 1538.0096875 783.82421875 1536.984375 C781.98543136 1532.70212 779.49654421 1529.04230963 776.8125 1525.25 C776.3263623 1524.55189209 775.84022461 1523.85378418 775.33935547 1523.13452148 C772.4946596 1519.06498701 769.57983723 1515.05293732 766.625 1511.0625 C763.83435059 1507.27924155 761.47405629 1503.48328238 759.3984375 1499.265625 C757.72556788 1496.55538931 755.7178861 1494.31121337 753.62353516 1491.91894531 C750.88008097 1488.67630623 748.45682997 1485.21179189 746 1481.75 C742.39641809 1476.70742161 738.77714671 1471.68022141 735.078125 1466.70703125 C734.1190625 1465.41684082 734.1190625 1465.41684082 733.140625 1464.10058594 C731.89888192 1462.43359716 730.65417897 1460.76880832 729.40625 1459.10644531 C728.84421875 1458.35073242 728.2821875 1457.59501953 727.703125 1456.81640625 C727.20458008 1456.15068604 726.70603516 1455.48496582 726.19238281 1454.79907227 C725 1453 725 1453 724 1450 C723.37738281 1449.70351562 722.75476562 1449.40703125 722.11328125 1449.1015625 C719.34903181 1447.66067832 718.65193657 1446.10129978 717.1875 1443.375 C714.66592486 1438.92516152 711.82999603 1435.30094818 708.3203125 1431.59375 C707 1430 707 1430 707 1428 C706.41992188 1427.77570313 705.83984375 1427.55140625 705.2421875 1427.3203125 C702.34874755 1425.61650988 701.03480102 1423.62848822 699.125 1420.875 C698.08279297 1419.39773438 698.08279297 1419.39773438 697.01953125 1417.890625 C696.01986328 1416.45976562 696.01986328 1416.45976562 695 1415 C693.94590988 1413.53557643 692.88443824 1412.07640992 691.8125 1410.625 C691.38582031 1410.03976562 690.95914062 1409.45453125 690.51953125 1408.8515625 C688.50593311 1406.39797505 686.25561699 1404.23229451 684 1402 C682.27847128 1400.17905169 680.57017263 1398.34550904 678.875 1396.5 C678.02679687 1395.5821875 677.17859375 1394.664375 676.3046875 1393.71875 C674.20296883 1391.23943441 672.62256903 1388.80261923 671 1386 C669.38025441 1384.28769752 667.7041054 1382.62836738 666 1381 C660.67890568 1375.91177632 655.98241552 1370.57485502 651.38671875 1364.82421875 C648.12047374 1360.95925125 644.53482397 1357.48137745 640.87109375 1353.99609375 C639 1352 639 1352 639 1350 C638.01 1349.67 637.02 1349.34 636 1349 C634.17578125 1347.22265625 634.17578125 1347.22265625 632.3125 1345.0625 C631.68988281 1344.35222656 631.06726562 1343.64195313 630.42578125 1342.91015625 C629 1341 629 1341 629 1339 C628.42926758 1338.75378906 627.85853516 1338.50757813 627.27050781 1338.25390625 C624.6215719 1336.79101003 622.81451454 1335.07354681 620.671875 1332.9375 C619.87265625 1332.14085937 619.0734375 1331.34421875 618.25 1330.5234375 C617.425 1329.69070313 616.6 1328.85796875 615.75 1328 C614.90953125 1327.16726563 614.0690625 1326.33453125 613.203125 1325.4765625 C612.4090625 1324.67992187 611.615 1323.88328125 610.796875 1323.0625 C610.06823242 1322.33160156 609.33958984 1321.60070313 608.58886719 1320.84765625 C607 1319 607 1319 607 1317 C606.40453369 1316.73123047 605.80906738 1316.46246094 605.19555664 1316.18554688 C602.99343296 1314.99645396 601.60232843 1313.820257 599.87109375 1312.03125 C599.31099609 1311.46019531 598.75089844 1310.88914062 598.17382812 1310.30078125 C597.3143457 1309.40939453 597.3143457 1309.40939453 596.4375 1308.5 C595.29269053 1307.32065437 594.14563543 1306.14348348 592.99609375 1304.96875 C592.49263428 1304.44732422 591.9891748 1303.92589844 591.47045898 1303.38867188 C589.84358092 1301.7743892 589.84358092 1301.7743892 587 1300 C587 1299.34 587 1298.68 587 1298 C586.01 1297.67 585.02 1297.34 584 1297 C584 1296.34 584 1295.68 584 1295 C583.443125 1294.7525 582.88625 1294.505 582.3125 1294.25 C579.57589087 1292.77075182 577.32349131 1291.06532561 575 1289 C575 1288.34 575 1287.68 575 1287 C574.43410156 1286.74992187 573.86820313 1286.49984375 573.28515625 1286.2421875 C570.65867505 1284.81445926 568.66210929 1283.11999649 566.4375 1281.125 C565.67308594 1280.44695312 564.90867187 1279.76890625 564.12109375 1279.0703125 C562 1277 562 1277 560.53515625 1274.9296875 C558.6380783 1272.54506534 556.62892466 1271.54620816 554 1270 C551.49188657 1268.0608402 549.09087336 1266.00425258 546.6875 1263.9375 C546.04232422 1263.39544922 545.39714844 1262.85339844 544.73242188 1262.29492188 C543.11416004 1260.90955275 541.55181197 1259.45941721 540 1258 C540 1257.34 540 1256.68 540 1256 C539.44828125 1255.74734375 538.8965625 1255.4946875 538.328125 1255.234375 C533.55061039 1252.70133034 529.33606282 1249.21301054 525 1246 C524.23429687 1245.44441406 523.46859375 1244.88882812 522.6796875 1244.31640625 C518.77426946 1241.45787784 515.42793782 1238.42793782 512 1235 C508.35731496 1232.01609842 504.6569779 1229.28335121 500.5 1227.0625 C497.85383354 1225.61270724 495.77834136 1223.98363797 493.5625 1221.9375 C484.38626983 1213.66298031 473.50528385 1207.22391469 463.00854492 1200.77685547 C458.15864214 1197.77998438 453.47703242 1194.58881204 448.8125 1191.3125 C443.11142841 1187.32292309 437.32215869 1183.86909252 431.1328125 1180.66796875 C427.8937228 1178.943416 424.79852666 1177.07034714 421.6875 1175.125 C416.72665181 1172.03275805 411.71302942 1169.06582717 406.625 1166.1875 C405.97104248 1165.81447754 405.31708496 1165.44145508 404.64331055 1165.05712891 C400.5275253 1162.74524342 396.34944685 1160.84777184 392 1159 C389.8209875 1157.8565578 387.6549186 1156.68822615 385.5 1155.5 C378.81616915 1151.88273537 372.02811038 1148.49775676 365.1875 1145.1875 C364.23359375 1144.71957031 363.2796875 1144.25164062 362.296875 1143.76953125 C357.06014447 1141.25648165 351.95155181 1139.27491246 346.36108398 1137.70922852 C342.58369922 1136.57456791 339.03852634 1134.9707866 335.4375 1133.375 C324.69864381 1128.72906518 313.70789134 1124.83966876 302.67480469 1120.95751953 C300.31104159 1120.11134585 297.96948265 1119.22416884 295.62890625 1118.31640625 C292.42271025 1117.15334053 289.467986 1116.37071358 286.125 1115.75 C280.50718766 1114.61101376 275.02980065 1113.20024794 269.51269531 1111.64672852 C233.53704885 1101.56597253 195.86348753 1094.9324477 158.44140625 1094.796875 C156.54478493 1094.78832489 156.54478493 1094.78832489 154.60984802 1094.77960205 C151.941604 1094.77021083 149.27347064 1094.76328572 146.60522461 1094.75976562 C142.6318309 1094.75330327 138.65881929 1094.71913001 134.68554688 1094.6875 C111.42231981 1094.59112411 88.45885259 1096.39687084 65.5 1100.25 C64.2413916 1100.45761963 62.9827832 1100.66523926 61.68603516 1100.87915039 C42.03278649 1104.23937954 22.69010628 1109.01026449 3.58203125 1114.68359375 C0.75960575 1115.51426831 -2.05393702 1116.27123509 -4.92578125 1116.91015625 C-23.0141217 1120.94857078 -40.13547687 1128.63262188 -57.06982422 1136.02392578 C-61.27779571 1137.85715843 -65.46309235 1139.5847339 -69.8125 1141.0625 C-80.90159773 1144.93931842 -91.28061782 1151.11216683 -101.62109375 1156.63232422 C-107.21739923 1159.61212499 -112.86814703 1162.47008775 -118.56054688 1165.26171875 C-122.80515563 1167.35495046 -126.90968176 1169.61836226 -131 1172 C-131.03440186 1171.33395752 -131.06880371 1170.66791504 -131.10424805 1169.98168945 C-133.35020938 1129.07037214 -141.64576555 1085.20821045 -161.90625 1048.9609375 C-163.18146842 1046.67465304 -164.41847468 1044.36926309 -165.65625 1042.0625 C-171.60436699 1031.04068653 -177.59917029 1019.94212726 -185 1009.8125 C-187 1007 -187 1007 -187 1005 C-187.99 1004.67 -188.98 1004.34 -190 1004 C-193.55607004 1000.15515397 -196.63116452 995.88792566 -199.0625 991.25 C-200.88758749 988.18856292 -202.59505181 986.50201957 -205.38671875 984.34765625 C-207.84003807 982.29827329 -209.79957187 979.87990828 -211.875 977.45703125 C-214.58201683 974.32704304 -217.34130004 971.2493148 -220.125 968.1875 C-220.62789551 967.62417969 -221.13079102 967.06085937 -221.64892578 966.48046875 C-224.54698642 963.30681103 -227.25392011 961.17492184 -231 959 C-231 958.34 -231 957.68 -231 957 C-231.88365234 956.59201172 -231.88365234 956.59201172 -232.78515625 956.17578125 C-234.95391947 955.0244625 -236.59506415 953.80016325 -238.4375 952.1875 C-239.04722656 951.65511719 -239.65695312 951.12273438 -240.28515625 950.57421875 C-241.70271708 949.27290437 -243.04964526 947.89511025 -244.375 946.5 C-247.26196642 943.75050817 -250.2938331 941.74258977 -253.6328125 939.5859375 C-255.8964364 938.06938419 -258.00216194 936.45628115 -260.125 934.75 C-264.1246274 931.59239942 -268.26839553 928.70871074 -272.5 925.875 C-273.10473145 925.46733398 -273.70946289 925.05966797 -274.33251953 924.63964844 C-279.08099078 921.48925707 -283.99570423 918.72085414 -289 916 C-292.02253055 914.33640646 -295.04227249 912.66777015 -298.0625 911 C-299.18881836 910.38125 -299.18881836 910.38125 -300.33789062 909.75 C-304.01452345 907.71625323 -307.62673792 905.63118823 -311.171875 903.375 C-319.33677396 898.21206525 -328.39485679 894.77124865 -337.41015625 891.39453125 C-340.73126361 890.10439487 -343.99220136 888.72413355 -347.26000977 887.30712891 C-364.14609598 880.01268343 -381.58553367 873.10263131 -399.55859375 869.04296875 C-403.22736302 868.21222142 -406.84624359 867.23754792 -410.47265625 866.23828125 C-438.6073642 858.49003314 -467.28238824 851.51433605 -496.39526367 848.83642578 C-501.79979716 848.33664847 -507.18620356 847.74950844 -512.57421875 847.09375 C-547.60620733 842.83560367 -582.71126882 840.41579339 -618 840 C-618.870802 839.98904297 -619.741604 839.97808594 -620.63879395 839.96679688 C-674.91867443 839.30836011 -728.89293447 842.30155232 -782.8525238 848.2797699 C-788.25855077 848.86156223 -793.6662006 849.27408784 -799.0901947 849.64976501 C-814.56544138 850.73315132 -829.8407102 852.70018793 -845.1875 854.9375 C-846.53104506 855.13075612 -847.87463295 855.32371471 -849.21826172 855.51638794 C-873.3886772 858.98917514 -897.44524817 863.04778957 -921.47729492 867.36889648 C-923.97443208 867.81762647 -926.47158329 868.26627824 -928.96875 868.71484375 C-930.15400269 868.92822891 -931.33925537 869.14161407 -932.5604248 869.36146545 C-938.26784956 870.37817777 -943.95106734 871.30771022 -949.70703125 871.99609375 C-960.6460356 873.34190934 -971.40972304 875.86121786 -982.1875 878.125 C-985.54016553 878.82755497 -988.89313206 879.52849115 -992.24714661 880.22457886 C-994.31915564 880.65470896 -996.39039439 881.0885711 -998.46073914 881.52664185 C-999.39303848 881.72039398 -1000.32533783 881.91414612 -1001.28588867 882.11376953 C-1002.10224289 882.28538605 -1002.91859711 882.45700256 -1003.75968933 882.63381958 C-1006 883 -1006 883 -1010 883 C-1008.3377201 873.95881906 -1006.33603184 865.08879901 -1003.88989258 856.22729492 C-1002.65013455 851.68251009 -1001.62302012 847.14524423 -1000.70703125 842.5234375 C-998.87681886 833.8494922 -996.04966975 825.56672118 -993.1875 817.1875 C-992.67315285 815.66103466 -992.1594788 814.13434235 -991.64648438 812.60742188 C-989.06449506 804.94470103 -986.42207792 797.30341661 -983.73828125 789.67578125 C-983.49281052 788.97712448 -983.24733978 788.27846771 -982.99443054 787.55863953 C-982.00626441 784.7645493 -980.99634313 781.99099073 -979.8815918 779.24462891 C-978.86727762 776.81919266 -978.86727762 776.81919266 -978.15625 773.41015625 C-976.82217072 767.87863954 -974.63955681 762.69833599 -972.5 757.4375 C-972.06365234 756.35428467 -971.62730469 755.27106934 -971.17773438 754.1550293 C-967.6744148 745.5176425 -964.00389408 736.9572857 -960.22460938 728.43725586 C-957.946508 723.28704567 -957.946508 723.28704567 -956.0078125 718.00390625 C-954.46243888 713.39773448 -952.39701501 709.03891081 -950.375 704.625 C-949.92624512 703.64184814 -949.47749023 702.65869629 -949.01513672 701.64575195 C-946.18593629 695.48432629 -943.26343695 689.38434922 -940.18554688 683.34375 C-938.07698858 679.19370484 -936.04329977 675.01389638 -934.046875 670.80859375 C-933.52335449 669.70684814 -932.99983398 668.60510254 -932.46044922 667.4699707 C-931.43187831 665.29989833 -930.40722416 663.12796351 -929.38720703 660.95385742 C-926.27083913 654.38756064 -922.81038881 648.18473647 -919 642 C-917.9006945 640.07151749 -916.81336587 638.13603032 -915.75 636.1875 C-915.27046875 635.31480469 -914.7909375 634.44210937 -914.296875 633.54296875 C-912.97997456 631.06894683 -912.97997456 631.06894683 -912.09130859 628.64379883 C-910.99393185 625.98529932 -909.71118107 623.62694143 -908.2421875 621.15625 C-907.70263428 620.24568848 -907.16308105 619.33512695 -906.60717773 618.39697266 C-906.03555908 617.44097168 -905.46394043 616.4849707 -904.875 615.5 C-904.29113525 614.51692871 -903.70727051 613.53385742 -903.10571289 612.52099609 C-899.32713434 606.1737364 -895.46645305 599.88400583 -891.5625 593.61328125 C-890.22725971 591.38009187 -889.0494848 589.16156789 -887.9375 586.8125 C-886.03768212 582.83940262 -883.54785385 579.40166106 -880.98828125 575.828125 C-875.76427469 568.39751448 -870.93092707 560.70414526 -866.4375 552.8125 C-863.6199976 547.91587515 -860.48688401 543.39335963 -857.1171875 538.86328125 C-854.77418085 535.69460252 -852.49855693 532.48608945 -850.25 529.25 C-849.86432861 528.69497803 -849.47865723 528.13995605 -849.08129883 527.56811523 C-847.18879633 524.81730305 -845.39981591 522.06252239 -843.8125 519.125 C-842.37452294 516.64572921 -841.11424815 514.88185529 -839.24609375 512.77734375 C-836.06821348 509.1218935 -833.13859285 505.32365494 -830.25 501.4375 C-829.7348584 500.74785156 -829.2197168 500.05820312 -828.68896484 499.34765625 C-824.44250602 493.64217112 -820.30451595 487.86279427 -816.18359375 482.06640625 C-808.98873948 471.96272002 -808.98873948 471.96272002 -805.625 468.6875 C-802.32634837 465.31030905 -799.74000716 461.57146085 -796.99609375 457.73828125 C-794.48962069 454.29985147 -791.90372326 451.11113206 -789 448 C-788.34 448 -787.68 448 -787 448 C-786.73574219 447.42636719 -786.47148438 446.85273437 -786.19921875 446.26171875 C-784.93519517 443.87777851 -783.49212009 441.9225948 -781.8125 439.8125 C-779.91419571 437.42189688 -778.02506884 435.03347939 -776.1953125 432.58984375 C-772.79758627 428.06709261 -769.41011863 424.58322139 -765 421 C-761.33384471 417.16720129 -758.04204074 413.10860076 -754.9375 408.8125 C-752.34336586 405.27816381 -749.40361343 402.77845994 -746 400 C-744.25355525 398.13121975 -742.59416928 396.20316379 -740.93359375 394.2578125 C-738.74287052 391.69975588 -736.50219901 389.19156568 -734.25 386.6875 C-733.51265625 385.86636719 -732.7753125 385.04523438 -732.015625 384.19921875 C-731.35046875 383.47347656 -730.6853125 382.74773437 -730 382 C-729.45859375 381.40832031 -728.9171875 380.81664062 -728.359375 380.20703125 C-727 379 -727 379 -725 379 C-724.78085937 378.45214844 -724.56171875 377.90429688 -724.3359375 377.33984375 C-722.57335876 374.25275408 -720.17031001 371.99728997 -717.625 369.5625 C-714.15242563 366.21527257 -711.01250027 362.77061292 -708 359 C-706.67532254 358.3162955 -705.34136367 357.65035814 -704 357 C-702.30927486 355.35774422 -700.64617469 353.68690973 -699 352 C-695.66666667 348.66666667 -692.33333333 345.33333333 -689 342 C-687.72382812 340.71029297 -687.72382812 340.71029297 -686.421875 339.39453125 C-684.41521373 337.41052583 -682.38685584 335.5275703 -680.25 333.6875 C-679.56808594 333.09582031 -678.88617187 332.50414062 -678.18359375 331.89453125 C-677.46300781 331.26933594 -676.74242187 330.64414062 -676 330 C-670.14212013 324.89814566 -670.14212013 324.89814566 -664.5625 319.5 C-661.39258144 316.40739652 -657.96809716 313.72896017 -654.49609375 310.984375 C-650.35324725 307.69084445 -646.32043698 304.35518532 -642.625 300.5625 C-638.29614792 296.33671583 -633.40495604 292.82714193 -628.59375 289.171875 C-627.8203125 288.57890625 -627.046875 287.9859375 -626.25 287.375 C-625.55390625 286.84648438 -624.8578125 286.31796875 -624.140625 285.7734375 C-621.88871395 283.96788644 -621.88871395 283.96788644 -619.609375 281.578125 C-616.89244151 278.89372963 -614.065293 276.65051087 -611 274.375 C-609.989375 273.61960937 -608.97875 272.86421875 -607.9375 272.0859375 C-605 270 -605 270 -602.4375 268.5390625 C-599.51982354 266.69681166 -597.43561674 264.44617577 -595 262 C-592.30950576 259.77527796 -589.53476287 257.66742614 -586.75 255.5625 C-585.6045874 254.69165771 -585.6045874 254.69165771 -584.43603516 253.80322266 C-580.1701683 250.57901038 -575.86929218 247.47951543 -571.37109375 244.5859375 C-567.98719183 242.32256983 -564.71698909 239.9113421 -561.4375 237.5 C-560.78168945 237.01821289 -560.12587891 236.53642578 -559.45019531 236.04003906 C-556.14562086 233.6046496 -552.87207084 231.13676221 -549.625 228.625 C-547.09927633 226.71173722 -544.55075448 225.16761402 -541.75 223.6875 C-538.02909109 221.69709898 -534.77862474 219.38955156 -531.4375 216.8125 C-524.97154357 211.86506364 -518.16926453 207.62518356 -511.23291016 203.37402344 C-507.18020243 200.88018579 -503.15156235 198.34826993 -499.125 195.8125 C-498.31063477 195.30074219 -497.49626953 194.78898438 -496.65722656 194.26171875 C-492.57497984 191.68204704 -488.58528966 189.04203889 -484.6875 186.1875 C-480.41098393 183.1072122 -475.8302322 180.83293095 -471.1003418 178.55126953 C-466.92722302 176.52128806 -463.17065125 174.22216452 -459.3671875 171.58203125 C-450.38114378 165.57650698 -440.61753639 160.71251151 -431.04736328 155.72070312 C-426.14304739 153.15436487 -421.29439527 150.51617772 -416.5 147.75 C-415.38496094 147.10675781 -414.26992188 146.46351563 -413.12109375 145.80078125 C-412.09113281 145.20652344 -411.06117188 144.61226562 -410 144 C-403.50673172 140.30130288 -396.90444912 136.99295792 -390.11181641 133.88647461 C-384.79377102 131.42835881 -379.61137834 128.74707319 -374.4375 126 C-373.63183594 125.57283691 -372.82617188 125.14567383 -371.99609375 124.70556641 C-371.20203125 124.28452637 -370.40796875 123.86348633 -369.58984375 123.4296875 C-365.57376396 121.30033982 -361.5511407 119.18694069 -357.5 117.125 C-356.4996875 116.61195313 -355.499375 116.09890625 -354.46875 115.5703125 C-351.58966829 114.26694443 -348.76878815 113.18363416 -345.79296875 112.13671875 C-339.92438646 110.04399965 -334.39805747 107.43562293 -328.8125 104.6875 C-316.2720409 98.61285188 -303.8129157 92.75437337 -290.57421875 88.3359375 C-286.62796814 86.86094547 -282.85207392 85.13056064 -279.02709961 83.36914062 C-265.56738992 77.28138743 -251.78268005 71.69751545 -237.70776367 67.20288086 C-231.47958043 65.20398269 -225.36725966 62.93962566 -219.25 60.625 C-218.24227539 60.24448486 -217.23455078 59.86396973 -216.19628906 59.47192383 C-214.15341183 58.70038393 -212.11060604 57.92865483 -210.06787109 57.15673828 C-205.0728592 55.27337314 -200.07141288 53.408564 -195.0625 51.5625 C-194.18174805 51.23266113 -193.30099609 50.90282227 -192.39355469 50.56298828 C-188.59596608 49.16966511 -184.90048238 47.91574798 -180.9296875 47.12890625 C-174.25920741 45.751855 -167.85830246 43.36961636 -161.42141724 41.17727661 C-157.39991292 39.80954789 -153.37187206 38.46137212 -149.34375 37.11328125 C-148.54187759 36.84480881 -147.74000519 36.57633636 -146.91383362 36.29972839 C-131.71742579 31.22285864 -116.50064184 26.41260695 -100.87011719 22.8527832 C-94.29079642 21.34611128 -87.80391331 19.59727669 -81.3125 17.75 C-60.04790538 11.73253668 -38.79575318 5.76269081 -17.125 1.375 C-15.22681519 0.98526001 -15.22681519 0.98526001 -13.2902832 0.58764648 C-11.54171021 0.24648804 -11.54171021 0.24648804 -9.7578125 -0.1015625 C-8.7383252 -0.30088379 -7.71883789 -0.50020508 -6.66845703 -0.70556641 C-4.08725976 -0.99037189 -2.43696368 -0.82634761 0 0 Z " fill="#000000" transform="translate(1123,297)"/>
<path d="" fill="#000000" transform="translate(0,0)"/>
</svg>
