<?xml version="1.0" encoding="UTF-8"?>
<svg version="1.1" xmlns="http://www.w3.org/2000/svg" width="223" height="226">
<path d="M0 0 C73.59 0 147.18 0 223 0 C223 74.58 223 149.16 223 226 C149.41 226 75.82 226 0 226 C0 151.42 0 76.84 0 0 Z " fill="#2C4268" transform="translate(0,0)"/>
<path d="M0 0 C0.33 0 0.66 0 1 0 C1 35.97 1 71.94 1 109 C-72.59 109 -146.18 109 -222 109 C-222 75.01 -222 41.02 -222 6 C-219.99006295 10.01987409 -219.44694238 12.83787308 -218.875 17.25 C-218.70742187 18.51328125 -218.53984375 19.7765625 -218.3671875 21.078125 C-218.18542969 22.52445313 -218.18542969 22.52445313 -218 24 C-217.23816406 23.39671875 -216.47632813 22.7934375 -215.69140625 22.171875 C-206.27656821 14.88448476 -199.25002739 10.07932988 -187 11 C-187.763125 11.721875 -188.52625 12.44375 -189.3125 13.1875 C-193.67263467 17.75043163 -195.42986813 20.93988759 -195.4375 27.3125 C-195.29181099 33.17979381 -194.34419885 37.19892244 -191 42 C-190.29875 43.03125 -189.5975 44.0625 -188.875 45.125 C-182.40677996 52.40670784 -171.91637024 56.85175467 -162.30078125 57.46875 C-160.63833409 57.50266392 -158.97524892 57.51211358 -157.3125 57.5 C-155.96478516 57.49468262 -155.96478516 57.49468262 -154.58984375 57.48925781 C-144.06380111 57.23776995 -134.10365414 54.79809361 -124 52 C-123.31873047 51.81356934 -122.63746094 51.62713867 -121.93554688 51.43505859 C-115.79958865 49.72686202 -109.90843738 47.6140665 -104.0234375 45.1953125 C-78.68662325 35.17843245 -53.82874955 26.64842736 -27 36 C-22.8708207 37.79649088 -18.93115184 39.80907143 -15 42 C-13.67025557 42.67379668 -12.33829877 43.34335808 -11 44 C-4.87071032 29.30160631 -1.48441392 15.87449709 0 0 Z " fill="#FDFDFD" transform="translate(222,117)"/>
<path d="M0 0 C0.59425781 0.52722656 1.18851563 1.05445313 1.80078125 1.59765625 C1.80078125 6.07838168 1.33208878 6.66834859 -1.38671875 9.97265625 C-2.02351562 10.75253906 -2.6603125 11.53242188 -3.31640625 12.3359375 C-3.93773437 13.08230469 -4.5590625 13.82867187 -5.19921875 14.59765625 C-5.69679687 15.23058594 -6.194375 15.86351562 -6.70703125 16.515625 C-7.81995303 17.91843958 -9.00321569 19.26496712 -10.19921875 20.59765625 C-10.85921875 20.59765625 -11.51921875 20.59765625 -12.19921875 20.59765625 C-12.19921875 21.25765625 -12.19921875 21.91765625 -12.19921875 22.59765625 C-32.81651377 42.40736137 -60.50512735 52.28447839 -88.69921875 52.84765625 C-110.93981204 52.37680932 -137.12964386 46.81184256 -154.19921875 31.59765625 C-154.19921875 31.26765625 -154.19921875 30.93765625 -154.19921875 30.59765625 C-152.95269531 30.4275 -151.70617187 30.25734375 -150.421875 30.08203125 C-128.20639829 26.95983241 -108.45969079 21.3988194 -88.19921875 11.59765625 C-60.96301764 -1.55005855 -28.95037119 -16.88396453 0 0 Z " fill="#A53034" transform="translate(198.19921875,173.40234375)"/>
<path d="M0 0 C34.32 0 68.64 0 104 0 C104 34.98 104 69.96 104 106 C103.67 106 103.34 106 103 106 C102.91363281 104.97003906 102.82726562 103.94007812 102.73828125 102.87890625 C101.33934741 88.06811114 97.81898322 74.29089245 91 61 C90.54882812 60.08863281 90.09765625 59.17726562 89.6328125 58.23828125 C86.1446767 51.47883972 81.94680717 45.75910576 77 40 C76.32195312 39.17628906 75.64390625 38.35257813 74.9453125 37.50390625 C65.43106606 26.33425063 53.79287168 18.86017744 41 12 C40.319375 11.60167969 39.63875 11.20335937 38.9375 10.79296875 C27.21741563 4.2265822 13.18099932 2.18859617 0 1 C0 0.67 0 0.34 0 0 Z " fill="#FDFDFD" transform="translate(119,0)"/>
<path d="M0 0 C34.32 0 68.64 0 104 0 C104 0.33 104 0.66 104 1 C102.61554688 1.11214844 102.61554688 1.11214844 101.203125 1.2265625 C78.24978247 3.54004169 57.35074267 11.5060912 40 27 C39.16210938 27.70769531 38.32421875 28.41539063 37.4609375 29.14453125 C15.54681333 48.04629092 5.36186594 73.03249734 1 101 C0.67 101 0.34 101 0 101 C0 67.67 0 34.34 0 0 Z " fill="#FDFDFD" transform="translate(0,0)"/>
<path d="M0 0 C1.12402222 0.01450195 1.12402222 0.01450195 2.27075195 0.02929688 C14.06522074 0.28583779 21.63463073 4.17747684 31.5625 10.25 C31.5625 11.24 31.5625 12.23 31.5625 13.25 C27.5625 11.91666667 23.5625 10.58333333 19.5625 9.25 C5.3017377 7.61103669 -5.11314825 9.39789864 -16.82421875 18.00390625 C-23.7252716 24.08997762 -30.06195919 35.29190067 -30.640625 44.47265625 C-30.80986262 58.33603799 -28.06483348 68.66924984 -18.625 79.2890625 C-16.65961744 81.14798683 -14.65699608 82.70366131 -12.4375 84.25 C-11.62152344 84.83007812 -10.80554688 85.41015625 -9.96484375 86.0078125 C-1.00418324 91.42705866 9.36330424 91.70525865 19.5625 90.25 C21.97886397 89.56894351 24.30266303 88.78611258 26.64575195 87.88647461 C28.5625 87.25 28.5625 87.25 31.5625 87.25 C31.5625 87.91 31.5625 88.57 31.5625 89.25 C19.29461537 98.27493972 6.42491834 100.39252647 -8.4375 99.25 C-22.08990042 96.87193235 -33.44166404 88.73808102 -41.3828125 77.49609375 C-49.20571367 64.94344689 -51.4188277 51.68821953 -48.375 37.1875 C-44.40407332 23.23410485 -35.39082954 12.31075211 -22.8125 5.25 C-15.31690079 1.32283467 -8.39577351 -0.11452686 0 0 Z " fill="#F8F9FA" transform="translate(147.4375,30.75)"/>
<path d="M0 0 C0.99 0.33 1.98 0.66 3 1 C4.33859334 3.9140571 5.08761099 6.9152562 6 10 C9.96 10.33 13.92 10.66 18 11 C18 11.99 18 12.98 18 14 C16.5390625 15.38671875 16.5390625 15.38671875 14.625 16.6875 C13.68527344 17.34298828 13.68527344 17.34298828 12.7265625 18.01171875 C11 19 11 19 9 19 C9.2165625 19.61488281 9.433125 20.22976562 9.65625 20.86328125 C9.9346875 21.67152344 10.213125 22.47976562 10.5 23.3125 C10.7784375 24.11300781 11.056875 24.91351563 11.34375 25.73828125 C12 28 12 28 12 31 C9.06610821 30.59251503 7.32906695 30.26736689 5 28.375 C3.06950019 26.75940337 3.06950019 26.75940337 0.5625 27.0625 C-2.17515244 27.90725769 -2.17515244 27.90725769 -4.625 30.125 C-5.40875 30.74375 -6.1925 31.3625 -7 32 C-7.99 31.67 -8.98 31.34 -10 31 C-9.34 27.04 -8.68 23.08 -8 19 C-9.155 18.236875 -10.31 17.47375 -11.5 16.6875 C-13.46875 15.38671875 -13.46875 15.38671875 -15 14 C-15 13.01 -15 12.02 -15 11 C-11.04 11 -7.08 11 -3 11 C-2.690625 9.370625 -2.38125 7.74125 -2.0625 6.0625 C-1.125 1.125 -1.125 1.125 0 0 Z " fill="#F7F7F9" transform="translate(168,54)"/>
<path d="M0 0 C0.66 0 1.32 0 2 0 C2.66 1.98 3.32 3.96 4 6 C6.64 6.33 9.28 6.66 12 7 C10.63016497 10.16115776 10.0109362 10.9927092 7 13 C7.33 15.64 7.66 18.28 8 21 C5.07120629 20.37240135 2.63904371 19.41377341 0 18 C-0.61875 18.495 -1.2375 18.99 -1.875 19.5 C-4 21 -4 21 -6 21 C-5.9175 19.7625 -5.835 18.525 -5.75 17.25 C-5.7264799 13.92190611 -5.75935666 13.28576397 -8 10.625 C-8.66 10.08875 -9.32 9.5525 -10 9 C-10 8.34 -10 7.68 -10 7 C-7.36 7 -4.72 7 -2 7 C-1.855625 6.030625 -1.71125 5.06125 -1.5625 4.0625 C-1 1 -1 1 0 0 Z " fill="#EFF0F3" transform="translate(71,63)"/>
<path d="M0 0 C0.66 0 1.32 0 2 0 C2.33 2.31 2.66 4.62 3 7 C5.64 7 8.28 7 11 7 C11 7.99 11 8.98 11 10 C9 11.6875 9 11.6875 7 13 C7.33 15.64 7.66 18.28 8 21 C5.07120629 20.37240135 2.63904371 19.41377341 0 18 C-0.61875 18.495 -1.2375 18.99 -1.875 19.5 C-4 21 -4 21 -6 21 C-5.9175 19.741875 -5.835 18.48375 -5.75 17.1875 C-5.68259763 15.00414041 -5.68259763 15.00414041 -6 13 C-7.9004467 11.15684329 -7.9004467 11.15684329 -10 10 C-10 9.01 -10 8.02 -10 7 C-7.36 7 -4.72 7 -2 7 C-1.34 4.69 -0.68 2.38 0 0 Z " fill="#EEEFF2" transform="translate(38,55)"/>
<path d="M0 0 C0.99 0 1.98 0 3 0 C3.33 2.31 3.66 4.62 4 7 C6.64 7 9.28 7 12 7 C10.25 10.875 10.25 10.875 8 12 C8.33 14.97 8.66 17.94 9 21 C8.2575 20.690625 7.515 20.38125 6.75 20.0625 C3.44445309 18.75003506 3.44445309 18.75003506 0 18 C-0.99 18.66 -1.98 19.32 -3 20 C-3.99 20 -4.98 20 -6 20 C-5.67 17.36 -5.34 14.72 -5 12 C-5.66 11.54625 -6.32 11.0925 -7 10.625 C-7.66 10.08875 -8.32 9.5525 -9 9 C-9 8.34 -9 7.68 -9 7 C-6.36 7 -3.72 7 -1 7 C-0.67 4.69 -0.34 2.38 0 0 Z " fill="#F4F5F7" transform="translate(34,90)"/>
<path d="M0 0 C0.99 0.33 1.98 0.66 3 1 C3.33 2.98 3.66 4.96 4 7 C6.64 7 9.28 7 12 7 C12 7.66 12 8.32 12 9 C11.01 9.556875 11.01 9.556875 10 10.125 C7.81895526 11.77406895 7.81895526 11.77406895 7.734375 13.97265625 C7.74856205 15.98367086 7.86840952 17.99324516 8 20 C5.07120629 19.37240135 2.63904371 18.41377341 0 17 C-0.433125 17.495 -0.86625 17.99 -1.3125 18.5 C-3 20 -3 20 -6 20 C-5.67 17.36 -5.34 14.72 -5 12 C-5.825 11.54625 -6.65 11.0925 -7.5 10.625 C-8.7375 9.820625 -8.7375 9.820625 -10 9 C-10 8.34 -10 7.68 -10 7 C-7.36 6.67 -4.72 6.34 -2 6 C-1.34 4.02 -0.68 2.04 0 0 Z " fill="#F5F6F7" transform="translate(74,29)"/>
</svg>
